<svg width="13" height="13" viewBox="0 0 13 13" fill="none" xmlns="http://www.w3.org/2000/svg">
<g clip-path="url(#clip0_3567_40478)">
<path d="M3.79304 9.86439C2.80899 9.07275 2.17926 7.8589 2.17926 6.49756C2.17926 4.48522 3.55724 2.7993 5.41969 2.3186V1.2054C2.95456 1.70567 1.09912 3.885 1.09912 6.49756C1.09912 8.11205 1.80799 9.55977 2.93059 10.5492C3.79951 11.3586 4.33955 10.2784 3.79304 9.86439ZM10.0236 2.40692C9.47032 1.90718 8.66019 2.71731 9.19128 3.11864C10.1844 3.91005 10.8206 5.12967 10.8206 6.49756C10.8206 8.51021 9.44234 10.1964 7.58005 10.6768V11.7903C10.0452 11.2895 11.9006 9.11043 11.9006 6.49749C11.9006 4.86174 11.1728 3.39714 10.0236 2.40692ZM5.89692 3.25157L7.65487 2.19885C7.91063 2.04566 7.91117 1.79614 7.65626 1.64186L5.88204 0.568035C5.62682 0.413992 5.42084 0.530276 5.42208 0.828574L5.43163 2.98895C5.4324 3.28709 5.64085 3.40476 5.89692 3.25157ZM7.118 9.74941L5.34355 10.8232C5.08841 10.9775 5.08895 11.227 5.34502 11.3802L7.10282 12.433C7.35858 12.5859 7.56749 12.4686 7.5688 12.1701L7.57804 10.0098C7.57897 9.71173 7.37268 9.59537 7.118 9.74941Z" fill="#666666"/>
</g>
<defs>
<clipPath id="clip0_3567_40478">
<rect width="12" height="12" fill="white" transform="translate(0.5 0.5)"/>
</clipPath>
</defs>
</svg>
