<svg width="18" height="18" viewBox="0 0 18 18" fill="none" xmlns="http://www.w3.org/2000/svg">
<path d="M3.33672 11.7207C3.55001 11.8996 3.83852 12 4.13926 12C4.43999 12 4.72851 11.8996 4.94179 11.7207L9.02846 8.32043L13.0582 11.7207C13.2715 11.8996 13.56 12 13.8607 12C14.1615 12 14.45 11.8996 14.6633 11.7207C14.77 11.6314 14.8547 11.5252 14.9125 11.4081C14.9702 11.2911 15 11.1655 15 11.0387C15 10.9119 14.9702 10.7864 14.9125 10.6693C14.8547 10.5523 14.77 10.446 14.6633 10.3567L9.83669 6.28412C9.73086 6.19409 9.60496 6.12264 9.46624 6.07387C9.32752 6.02511 9.17874 6 9.02846 6C8.87818 6 8.7294 6.02511 8.59068 6.07387C8.45196 6.12264 8.32606 6.19409 8.22023 6.28412L3.33672 10.3567C3.23003 10.446 3.14534 10.5523 3.08755 10.6693C3.02976 10.7864 3 10.9119 3 11.0387C3 11.1655 3.02976 11.2911 3.08755 11.4081C3.14534 11.5252 3.23003 11.6314 3.33672 11.7207Z" fill="#F59D4D"/>
</svg>
