<svg width="66" height="65" viewBox="0 0 66 65" fill="none" xmlns="http://www.w3.org/2000/svg">
<rect x="0.5" width="65" height="65" rx="32.5" fill="#F20C0C"/>
<path d="M35.4679 32.9993L46.4929 21.9918C46.8224 21.6623 47.0075 21.2154 47.0075 20.7493C47.0075 20.2833 46.8224 19.8364 46.4929 19.5068C46.1633 19.1773 45.7164 18.9922 45.2504 18.9922C44.7844 18.9922 44.3374 19.1773 44.0079 19.5068L33.0004 30.5318L21.9929 19.5068C21.6634 19.1773 21.2164 18.9922 20.7504 18.9922C20.2844 18.9922 19.8374 19.1773 19.5079 19.5068C19.1783 19.8364 18.9932 20.2833 18.9932 20.7493C18.9932 21.2154 19.1783 21.6623 19.5079 21.9918L30.5329 32.9993L19.5079 44.0068C19.3439 44.1695 19.2137 44.3631 19.1248 44.5763C19.036 44.7896 18.9902 45.0183 18.9902 45.2493C18.9902 45.4804 19.036 45.7091 19.1248 45.9224C19.2137 46.1356 19.3439 46.3292 19.5079 46.4918C19.6706 46.6559 19.8641 46.7861 20.0774 46.8749C20.2906 46.9638 20.5194 47.0095 20.7504 47.0095C20.9814 47.0095 21.2101 46.9638 21.4234 46.8749C21.6366 46.7861 21.8302 46.6559 21.9929 46.4918L33.0004 35.4668L44.0079 46.4918C44.1706 46.6559 44.3641 46.7861 44.5774 46.8749C44.7906 46.9638 45.0194 47.0095 45.2504 47.0095C45.4814 47.0095 45.7101 46.9638 45.9234 46.8749C46.1366 46.7861 46.3302 46.6559 46.4929 46.4918C46.6569 46.3292 46.7871 46.1356 46.8759 45.9224C46.9648 45.7091 47.0105 45.4804 47.0105 45.2493C47.0105 45.0183 46.9648 44.7896 46.8759 44.5763C46.7871 44.3631 46.6569 44.1695 46.4929 44.0068L35.4679 32.9993Z" fill="white"/>
</svg>
