<svg width="120" height="100" viewBox="0 0 120 100" fill="none" xmlns="http://www.w3.org/2000/svg">
<g clip-path="url(#clip0_9405_8403)">
<path d="M79.7806 0.5L122.322 46.0034H71.436L110.397 42.2897L79.7806 9.53781V0.5Z" fill="#F28420"/>
<path d="M49.0044 34.4464L53.0716 38.9518L79.5108 9.64575V0.634766L49.0044 34.4464Z" fill="#F28420"/>
<path d="M14.7981 29.8781V24.4374H9.40835L6.13371 29.1442L9.40835 27.4215V35.8464L0.236816 46.0041H8.37372L28.7223 23.469V14.458L14.7981 29.8781Z" fill="#F28420"/>
<path d="M28.7234 14.458V23.469L49.072 46.0041H57.2064L28.7234 14.458Z" fill="#F28420"/>
<path d="M78.8535 31.2938H73.4841V25.9219H78.8535V31.2938Z" fill="#F28420"/>
<path d="M85.5374 31.2938H80.168V25.9219H85.5374V31.2938Z" fill="#F28420"/>
<path d="M78.8535 38.0292H73.4841V32.6572H78.8535V38.0292Z" fill="#F28420"/>
<path d="M85.5374 38.0292H80.168V32.6572H85.5374V38.0292Z" fill="#F28420"/>
<path d="M28.2443 38.4522H24.3198V34.5303H28.2443V38.4522Z" fill="#F28420"/>
<path d="M33.1233 38.4522H29.2014V34.5303H33.1233V38.4522Z" fill="#F28420"/>
<path d="M28.2443 43.3737H24.3198V39.4492H28.2443V43.3737Z" fill="#F28420"/>
<path d="M33.1233 43.3737H29.2014V39.4492H33.1233V43.3737Z" fill="#F28420"/>
<path d="M11.4174 71.5501C9.68966 71.5501 8.19887 71.201 6.94253 70.5002C5.68365 69.7943 4.71527 68.7877 4.03741 67.483C3.357 66.1782 3.01807 64.6339 3.01807 62.845C3.01807 61.0509 3.357 59.5092 4.03741 58.2171C4.71527 56.92 5.67855 55.9211 6.92215 55.2203C8.17084 54.5144 9.66928 54.1602 11.4174 54.1602C12.5642 54.1602 13.6396 54.3309 14.6386 54.6698C15.6375 55.0037 16.4734 55.5006 17.1462 56.1581L16.086 58.6453C15.3649 58.0413 14.6386 57.6055 13.9046 57.3405C13.1707 57.0755 12.3705 56.943 11.5092 56.943C9.86295 56.943 8.58877 57.4526 7.68665 58.472C6.78199 59.4862 6.33093 60.9439 6.33093 62.845C6.33093 64.7486 6.77434 66.2139 7.66627 67.2383C8.56329 68.2577 9.84256 68.7673 11.5092 68.7673C12.3705 68.7673 13.1707 68.6348 13.9046 68.3698C14.6386 68.1048 15.3649 67.6715 16.086 67.065L17.1462 69.5522C16.4734 70.1919 15.6375 70.6837 14.6386 71.0303C13.6396 71.3769 12.5642 71.5501 11.4174 71.5501Z" fill="#301A06"/>
<path d="M24.3341 71.305V57.0648H18.5544V54.4043H33.2737V57.0648H27.4941V71.305H24.3341Z" fill="#301A06"/>
<path d="M35.6187 71.305V54.4043H43.1006C44.3442 54.4043 45.3992 54.6133 46.2708 55.0261C47.1474 55.4415 47.8125 56.0454 48.2687 56.8405C48.7223 57.6305 48.9516 58.5836 48.9516 59.7049C48.9516 60.793 48.7223 61.7385 48.2687 62.5386C47.8125 63.3337 47.1474 63.9504 46.2708 64.3837C45.3992 64.8118 44.3442 65.0258 43.1006 65.0258H38.7786V71.305H35.6187ZM38.7786 62.5081H42.591C43.6638 62.5081 44.4767 62.2787 45.0272 61.8149C45.5776 61.346 45.8528 60.6427 45.8528 59.7049C45.8528 58.7747 45.5776 58.0816 45.0272 57.6254C44.4767 57.1718 43.6638 56.9425 42.591 56.9425H38.7786V62.5081Z" fill="#301A06"/>
<path d="M59.4923 71.5501C58.2411 71.5501 57.1122 71.3463 56.1081 70.9385C55.1015 70.5308 54.2376 69.9472 53.519 69.1853C52.7978 68.4259 52.2448 67.511 51.8575 66.4432C51.4752 65.3704 51.2866 64.1701 51.2866 62.845C51.2866 61.5198 51.4752 60.3272 51.8575 59.2671C52.2448 58.2018 52.7978 57.287 53.519 56.525C54.2376 55.7656 55.1015 55.1795 56.1081 54.7718C57.1122 54.364 58.2411 54.1602 59.4923 54.1602C60.7206 54.1602 61.8394 54.364 62.846 54.7718C63.85 55.1795 64.7139 55.7605 65.4351 56.5148C66.1537 57.2641 66.7042 58.1713 67.0864 59.2365C67.4738 60.2966 67.6675 61.4892 67.6675 62.8144C67.6675 64.1472 67.4738 65.35 67.0864 66.4228C66.7042 67.4906 66.1537 68.408 65.4351 69.1751C64.7139 69.9447 63.85 70.5308 62.846 70.9385C61.8394 71.3463 60.7206 71.5501 59.4923 71.5501ZM59.4923 68.8081C60.5321 68.8081 61.4138 68.5788 62.1426 68.115C62.8689 67.6537 63.427 66.9784 63.8143 66.0865C64.2068 65.1894 64.4056 64.1089 64.4056 62.845C64.4056 61.5682 64.2119 60.4877 63.8245 59.6034C63.4423 58.7141 62.8867 58.0413 62.1528 57.5851C61.4189 57.1239 60.5321 56.892 59.4923 56.892C58.4526 56.892 57.5658 57.1239 56.8318 57.5851C56.0979 58.0413 55.5322 58.7141 55.1397 59.6034C54.7447 60.4877 54.5485 61.5682 54.5485 62.845C54.5485 64.1089 54.7447 65.1894 55.1397 66.0865C55.5322 66.9784 56.0979 67.6537 56.8318 68.115C57.5658 68.5788 58.4526 68.8081 59.4923 68.8081Z" fill="#301A06"/>
<path d="M71.1619 71.3057V54.405H74.1383V66.7696H73.8223L83.1697 54.405H85.7385V71.3057H82.7416V58.9105H83.0576L73.7 71.3057H71.1619ZM78.4807 53.0595C77.6296 53.0595 76.8753 52.9168 76.2178 52.6314C75.5654 52.3408 75.0252 51.9255 74.597 51.3878C74.174 50.845 73.8861 50.213 73.7306 49.4918L75.4533 49.0127C75.7234 49.7619 76.098 50.3047 76.5746 50.6436C77.0562 50.9775 77.6908 51.1431 78.4807 51.1431C79.2962 51.1431 79.941 50.9775 80.4175 50.6436C80.8991 50.3047 81.289 49.767 81.5897 49.0331L83.2717 49.4918C82.9506 50.6538 82.3695 51.5407 81.5286 52.1523C80.6927 52.7588 79.6759 53.0595 78.4807 53.0595Z" fill="#301A06"/>
<path d="M2.28169 95.9447L0.731689 93.6371C1.35669 93.2696 1.90669 92.8356 2.38169 92.3302C2.86169 91.8273 3.26169 91.2045 3.58169 90.4617C3.90669 89.7138 4.14669 88.7923 4.30169 87.6947C4.46169 86.5996 4.54169 85.2825 4.54169 83.7433V78.6074H16.4617V95.5363H13.3617V81.2723H7.41169V84.5601C7.41169 86.1606 7.30169 87.5722 7.08169 88.7974C6.86169 90.0226 6.53169 91.0998 6.09169 92.0239C5.65169 92.9428 5.10669 93.7239 4.46169 94.3621C3.82169 95.0028 3.09419 95.5312 2.28169 95.9447Z" fill="#F28420"/>
<path d="M20.4548 95.5353V78.6064H23.3748V90.9917H23.0648L32.2348 78.6064H34.7548V95.5353H31.8148V83.1194H32.1248L22.9448 95.5353H20.4548Z" fill="#F28420"/>
<path d="M37.2385 99.4979V92.9428H38.9385C39.4385 92.2894 39.851 91.5032 40.1785 90.5842C40.511 89.6602 40.751 88.5779 40.8985 87.3373C41.0435 86.0993 41.1185 84.6928 41.1185 83.1204V78.6074H53.0685V92.9428H55.3785V99.4979H52.5785V95.5363H40.0385V99.4979H37.2385ZM42.0885 92.9428H49.9385V81.2009H44.0185V83.4063C44.0185 84.9328 43.9435 86.2805 43.7985 87.4496C43.6585 88.6136 43.4485 89.6449 43.1685 90.5434C42.8885 91.4368 42.5285 92.2357 42.0885 92.9428Z" fill="#F28420"/>
<path d="M58.052 95.5363V78.6074H69.272V81.1804H61.062V85.6628H68.752V88.2358H61.062V92.9632H69.272V95.5363H58.052Z" fill="#F28420"/>
<path d="M72.7002 95.5353V78.6064H80.0402C81.2602 78.6064 82.2952 78.8158 83.1502 79.2293C84.0102 79.6454 84.6627 80.2503 85.1102 81.0467C85.5552 81.838 85.7802 82.7927 85.7802 83.9159C85.7802 85.0058 85.5552 85.9528 85.1102 86.7543C84.6627 87.5508 84.0102 88.1685 83.1502 88.6024C82.2952 89.0313 81.2602 89.2457 80.0402 89.2457H75.8002V95.5353H72.7002ZM75.8002 86.7237H79.5402C80.5927 86.7237 81.3902 86.494 81.9302 86.0294C82.4702 85.5597 82.7402 84.8552 82.7402 83.9159C82.7402 82.9842 82.4702 82.2898 81.9302 81.8329C81.3902 81.3786 80.5927 81.1488 79.5402 81.1488H75.8002V86.7237Z" fill="#F28420"/>
<path d="M100.423 95.7813C99.6834 95.7813 98.9659 95.6996 98.2734 95.5363C97.5859 95.3729 96.9384 95.1483 96.3334 94.8624C95.7334 94.5765 95.2159 94.2344 94.7834 93.8311L95.8134 91.4317C96.5184 92.0035 97.2534 92.4323 98.0134 92.7182C98.7734 92.999 99.5584 93.1368 100.373 93.1368C101.358 93.1368 102.128 92.8867 102.683 92.3812C103.243 91.8784 103.523 91.1764 103.523 90.2779C103.523 89.3794 103.258 88.6647 102.733 88.1337C102.213 87.5977 101.488 87.3271 100.563 87.3271C99.9034 87.3271 99.3159 87.4573 98.8034 87.7151C98.2959 87.9678 97.8259 88.3481 97.3934 88.8587H95.2534V78.6074H105.523V81.2213H98.1234V86.4592H97.6434C98.0234 85.9487 98.5334 85.5403 99.1734 85.234C99.8184 84.9277 100.526 84.7745 101.293 84.7745C102.346 84.7745 103.258 84.9991 104.033 85.4484C104.806 85.8976 105.403 86.5281 105.823 87.3373C106.248 88.149 106.463 89.0884 106.463 90.1554C106.463 91.2938 106.218 92.2842 105.733 93.1266C105.253 93.9639 104.556 94.6173 103.643 95.087C102.736 95.549 101.663 95.7813 100.423 95.7813Z" fill="#F28420"/>
<path d="M114.111 95.7812C113.356 95.7812 112.623 95.7021 111.911 95.5464C111.196 95.3984 110.531 95.1788 109.911 94.8929C109.291 94.6019 108.753 94.2548 108.301 93.8515L109.311 91.452C110.043 92.0315 110.803 92.4578 111.591 92.7283C112.376 93.0015 113.183 93.1368 114.011 93.1368C114.671 93.1368 115.233 93.0449 115.701 92.8611C116.173 92.6773 116.541 92.4016 116.801 92.034C117.061 91.6665 117.191 91.2121 117.191 90.6658C117.191 89.8643 116.926 89.267 116.401 88.879C115.873 88.4859 115.111 88.2868 114.111 88.2868H111.381V85.6934H113.781C114.373 85.6934 114.883 85.5989 115.311 85.4075C115.743 85.2109 116.086 84.9276 116.341 84.56C116.593 84.1924 116.721 83.7432 116.721 83.2122C116.721 82.4771 116.476 81.9257 115.991 81.5582C115.503 81.1906 114.821 81.0068 113.941 81.0068C113.141 81.0068 112.376 81.1446 111.651 81.4152C110.923 81.6883 110.236 82.1274 109.591 82.7324L108.581 80.384C109.241 79.7254 110.071 79.2251 111.071 78.883C112.076 78.5359 113.121 78.3623 114.201 78.3623C115.326 78.3623 116.301 78.541 117.121 78.8932C117.946 79.2481 118.576 79.7586 119.011 80.4248C119.443 81.0859 119.661 81.89 119.661 82.8345C119.661 83.8096 119.401 84.657 118.881 85.3768C118.366 86.0992 117.646 86.597 116.721 86.8676V86.7246C117.426 86.8548 118.033 87.1075 118.541 87.4802C119.046 87.8554 119.436 88.3277 119.711 88.8994C119.991 89.4661 120.131 90.1323 120.131 90.9007C120.131 91.9089 119.883 92.7768 119.391 93.5043C118.896 94.2344 118.201 94.7959 117.301 95.189C116.406 95.5821 115.343 95.7812 114.111 95.7812Z" fill="#F28420"/>
</g>
<defs>
<clipPath id="clip0_9405_8403">
<rect width="120" height="99" fill="white" transform="translate(0 0.5)"/>
</clipPath>
</defs>
</svg>
