<svg width="20" height="20" viewBox="0 0 20 20" fill="none" xmlns="http://www.w3.org/2000/svg">
<path d="M3.84583 15.8337C3.4625 15.8337 3.1425 15.7053 2.88583 15.4487C2.62917 15.192 2.50056 14.8717 2.5 14.4878V5.51283C2.5 5.12949 2.62861 4.80949 2.88583 4.55283C3.14306 4.29616 3.46306 4.16755 3.84583 4.16699H16.1542C16.5375 4.16699 16.8575 4.2956 17.1142 4.55283C17.3708 4.81005 17.4994 5.13005 17.5 5.51283V14.4878C17.5 14.8712 17.3717 15.1912 17.115 15.4478C16.8583 15.7045 16.5381 15.8331 16.1542 15.8337H3.84583ZM10 10.0962L3.33333 5.73783V14.4878C3.33333 14.6373 3.38139 14.76 3.4775 14.8562C3.57361 14.9523 3.69639 15.0003 3.84583 15.0003H16.1542C16.3036 15.0003 16.4264 14.9523 16.5225 14.8562C16.6186 14.76 16.6667 14.6373 16.6667 14.4878V5.73783L10 10.0962ZM10 9.16699L16.41 5.00033H3.59L10 9.16699ZM3.33333 5.73783V5.00033V14.4878C3.33333 14.6373 3.38139 14.76 3.4775 14.8562C3.57361 14.9523 3.69639 15.0003 3.84583 15.0003H3.33333V5.73783Z" fill="#F28420"/>
</svg>
