<svg width="18" height="19" viewBox="0 0 18 19" fill="none" xmlns="http://www.w3.org/2000/svg">
<rect width="18" height="18" transform="translate(0 0.5)" fill="white"/>
<path d="M10.8638 3.05294C10.2681 2.59702 9.42303 2.50031 9.04899 2.50031C8.79933 2.50031 8.65755 2.48943 8.19007 2.59702C7.82988 2.67991 7.46969 2.8457 7.15105 3.03912C6.84628 3.24636 6.50825 3.59176 6.25058 4.02005C6.00121 4.43452 5.95042 4.80294 5.87653 5.05623C5.82574 5.36018 5.74077 6.08689 5.80726 6.56216C5.89038 7.15624 5.9458 7.37729 6.29214 8.15098C6.63848 8.92466 6.91555 9.25624 7.22032 9.60163C7.46414 9.87795 7.45583 10.0023 7.45583 10.1957C7.45583 10.3891 7.4149 10.6378 7.27574 10.8174C7.04023 11.1214 6.65233 11.1511 6.1536 11.3839C5.63271 11.627 5.013 11.9641 4.76825 12.1023C4.50041 12.2727 3.88162 12.6964 3.54914 13.028C3.13353 13.4424 3.05041 13.6497 3.00885 14.147C2.96729 14.6444 3.07031 15.0183 3.35519 15.3352C3.71537 15.7359 4.38035 15.9845 4.9622 16.1227C5.54405 16.2609 6.63847 16.4128 7.5251 16.4681C8.41173 16.5234 9.09055 16.4957 10.0741 16.4681C11.0577 16.4405 12.0136 16.3714 12.7756 16.2056C13.5375 16.0398 14.2025 15.722 14.4796 15.4734C14.7566 15.2247 14.8675 15.0036 14.9644 14.4924C15.0614 13.9812 14.9367 13.7464 14.8675 13.5944C14.7982 13.4424 14.5904 13.1385 14.1332 12.724C13.6761 12.3095 13.0942 12.0056 12.3738 11.6464C11.6535 11.2872 11.0816 11.2086 10.8222 10.997C10.6698 10.8727 10.5452 10.6931 10.5175 10.4168C10.4898 10.1405 10.544 9.96314 10.6283 9.79506C10.6976 9.6569 11.1409 9.15953 11.4318 8.71743C11.7227 8.27532 12.0552 7.39111 12.1522 6.71413C12.2492 6.03716 12.1954 5.07366 12.0136 4.60031C11.7643 3.95097 11.5731 3.59577 10.8638 3.05294Z" fill="#B3B3B3"/>
</svg>
