<svg width="20" height="20" viewBox="0 0 20 20" fill="none" xmlns="http://www.w3.org/2000/svg">
<rect width="20" height="20" rx="10" fill="#F28420"/>
<path d="M15.2851 6.64C15.2187 6.57305 15.1397 6.51991 15.0526 6.48364C14.9656 6.44738 14.8722 6.42871 14.7779 6.42871C14.6836 6.42871 14.5903 6.44738 14.5032 6.48364C14.4162 6.51991 14.3372 6.57305 14.2708 6.64L8.94936 11.9686L6.71365 9.72571C6.64471 9.65911 6.56332 9.60674 6.47414 9.5716C6.38495 9.53645 6.28972 9.51922 6.19388 9.52087C6.09804 9.52253 6.00346 9.54305 5.91555 9.58126C5.82763 9.61947 5.74811 9.67462 5.68151 9.74357C5.61491 9.81251 5.56254 9.8939 5.5274 9.98308C5.49225 10.0723 5.47501 10.1675 5.47667 10.2633C5.47833 10.3592 5.49885 10.4538 5.53706 10.5417C5.57527 10.6296 5.63042 10.7091 5.69936 10.7757L8.44222 13.5186C8.50862 13.5855 8.58762 13.6387 8.67467 13.6749C8.76171 13.7112 8.85507 13.7299 8.94936 13.7299C9.04366 13.7299 9.13702 13.7112 9.22406 13.6749C9.3111 13.6387 9.39011 13.5855 9.45651 13.5186L15.2851 7.69C15.3576 7.62311 15.4154 7.54193 15.455 7.45157C15.4946 7.36121 15.515 7.26364 15.515 7.165C15.515 7.06635 15.4946 6.96878 15.455 6.87842C15.4154 6.78806 15.3576 6.70688 15.2851 6.64Z" fill="white"/>
</svg>
