<svg width="14" height="10" viewBox="0 0 14 10" fill="none" xmlns="http://www.w3.org/2000/svg">
<path d="M13.072 0.717179C12.9878 0.633819 12.8876 0.567654 12.7773 0.522501C12.6669 0.477348 12.5485 0.454102 12.429 0.454102C12.3094 0.454102 12.1911 0.477348 12.0807 0.522501C11.9703 0.567654 11.8702 0.633819 11.786 0.717179L5.03922 7.35197L2.20467 4.55931C2.11726 4.47639 2.01408 4.41118 1.90101 4.36742C1.78794 4.32366 1.6672 4.3022 1.54568 4.30426C1.42417 4.30633 1.30426 4.33188 1.1928 4.37945C1.08133 4.42703 0.980507 4.4957 0.896069 4.58155C0.811632 4.66739 0.745238 4.76873 0.700679 4.87977C0.656119 4.99082 0.634267 5.10939 0.636369 5.22873C0.638471 5.34807 0.664487 5.46583 0.712931 5.57529C0.761376 5.68476 0.831299 5.78378 0.91871 5.8667L4.39624 9.28193C4.48043 9.36529 4.58059 9.43146 4.69095 9.47661C4.8013 9.52176 4.91967 9.54501 5.03922 9.54501C5.15877 9.54501 5.27714 9.52176 5.3875 9.47661C5.49786 9.43146 5.59802 9.36529 5.6822 9.28193L13.072 2.02457C13.1639 1.94129 13.2372 1.84021 13.2874 1.7277C13.3376 1.6152 13.3635 1.4937 13.3635 1.37088C13.3635 1.24805 13.3376 1.12656 13.2874 1.01405C13.2372 0.901543 13.1639 0.800463 13.072 0.717179Z" fill="white"/>
</svg>
