<svg width="25" height="24" viewBox="0 0 25 24" fill="none" xmlns="http://www.w3.org/2000/svg">
<path d="M18.6704 4.60202C18.0807 4.19674 17.3474 4.03291 16.6319 4.14655C15.9164 4.26019 15.2771 4.642 14.8548 5.20801L7.95479 14.4555C7.79778 14.6552 7.68399 14.8831 7.62012 15.1256C7.55626 15.3682 7.54361 15.6206 7.58292 15.8679C7.62223 16.1152 7.71271 16.3525 7.84902 16.5658C7.98533 16.779 8.16472 16.9639 8.37662 17.1096C8.58852 17.2552 8.82864 17.3587 9.08285 17.4139C9.33705 17.4691 9.60018 17.4749 9.85675 17.4309C10.1133 17.387 10.3581 17.2942 10.5768 17.158C10.7954 17.0218 10.9834 16.845 11.1298 16.638L16.0017 10.1093L15.3665 9.67202L10.4954 16.2023C10.3143 16.4444 10.0406 16.6078 9.73424 16.6566C9.42789 16.7054 9.11389 16.6356 8.86104 16.4625C8.60859 16.2884 8.43842 16.0252 8.38789 15.7308C8.33736 15.4363 8.41059 15.1347 8.59151 14.892L15.4899 5.64452H15.4915L15.4899 5.64302C15.7925 5.23942 16.2493 4.96735 16.7603 4.88638C17.2713 4.80542 17.7949 4.92215 18.2165 5.21102C18.6369 5.50144 18.9203 5.93995 19.0047 6.43054C19.089 6.92113 18.9674 7.42381 18.6665 7.82852V7.82702L11.104 17.964C10.6812 18.5294 10.0422 18.9109 9.32697 19.0248C8.61174 19.1386 7.87865 18.9757 7.28838 18.5715C6.69949 18.1652 6.30244 17.5513 6.18426 16.8644C6.06608 16.1774 6.23641 15.4736 6.65791 14.907L12.154 7.54052L11.5189 7.10401L6.02276 14.4705C5.75391 14.8308 5.56165 15.2384 5.45698 15.67C5.35231 16.1016 5.33727 16.5488 5.41273 16.986C5.48819 17.4232 5.65266 17.8419 5.89674 18.218C6.14083 18.5942 6.45974 18.9205 6.83526 19.1783C7.2103 19.4366 7.63472 19.6214 8.08423 19.7222C8.53374 19.823 8.99953 19.8377 9.45497 19.7656C9.91041 19.6934 10.3466 19.5358 10.7385 19.3017C11.1305 19.0676 11.4705 18.7616 11.7392 18.4013L19.3017 8.26426C19.7234 7.69799 19.8937 6.99412 19.775 6.30737C19.6563 5.62063 19.2585 5.00723 18.6689 4.60202H18.6704Z" fill="#999999"/>
</svg>
