<svg width="18" height="19" viewBox="0 0 18 19" fill="none" xmlns="http://www.w3.org/2000/svg">
<path d="M14.9309 12.6769C14.2366 12.0738 13.5616 11.7077 13.3109 11.6C13.1567 11.5462 12.7787 11.4385 12.501 11.4385C12.2233 11.4385 11.951 11.5969 11.7775 11.7584C11.5732 11.9558 11.1125 12.3539 10.881 12.5692C10.5918 12.8385 10.3603 12.8923 10.1289 12.8923C9.89751 12.8923 9.66609 12.8385 9.26111 12.6769C8.85613 12.5154 8.62471 12.3 7.93045 11.7077C7.37505 11.2339 6.77336 10.5051 6.54194 10.2C6.38766 9.98462 6.02124 9.44616 5.78982 9.01539C5.55841 8.58462 5.57769 8.18975 5.61626 8.04616C5.65483 7.93847 5.8014 7.66924 6.0791 7.45385C6.42623 7.18462 6.83121 6.96924 7.23619 6.59232C7.64118 6.21539 7.61191 5.943 7.61191 5.78146C7.61191 5.56608 7.46761 5.13847 7.17834 4.60001C6.88907 4.06155 6.28125 3.25069 5.99198 2.92761C5.69568 2.59669 5.41343 2.49999 5.21128 2.5C5.09557 2.5 4.71869 2.55546 4.37204 2.76608C4.11136 2.92448 3.5142 3.36154 3.30207 3.57692C3.07065 3.82821 2.69426 4.27377 2.37639 4.92308C2.15178 5.3819 2.06783 5.98205 2.02926 6.21538C1.99069 6.46667 1.95983 7.16308 2.14497 7.93846C2.37639 8.90769 2.78137 9.60769 3.18635 10.3077C3.59134 11.0077 4.80629 12.6231 5.96338 13.7C7.12048 14.7769 8.16186 15.3692 8.85612 15.7462C9.41152 16.0477 10.3603 16.3026 10.7653 16.3923C10.9582 16.4282 11.4712 16.5 11.9803 16.5C12.6167 16.5 13.5424 16.2308 14.063 15.9615C14.5837 15.6923 15.7408 14.7231 15.9144 14.4538C16.0533 14.2385 16.0008 13.9012 15.9144 13.7C15.8758 13.6103 15.6251 13.28 14.9309 12.6769Z" fill="#B3B3B3"/>
</svg>
