<svg width="30" height="30" viewBox="0 0 30 30" fill="none" xmlns="http://www.w3.org/2000/svg">
<g clip-path="url(#clip0_9405_8479)">
<path opacity="0.997" fill-rule="evenodd" clip-rule="evenodd" d="M13.623 -0.0292969C14.5215 -0.0292969 15.4199 -0.0292969 16.3184 -0.0292969C21.5709 0.608666 25.526 3.20633 28.1836 7.76367C29.1618 9.60768 29.7575 11.5608 29.9707 13.623C29.9707 14.5215 29.9707 15.4199 29.9707 16.3184C29.3327 21.5709 26.7351 25.526 22.1777 28.1836C20.3337 29.1618 18.3806 29.7575 16.3184 29.9707C15.4199 29.9707 14.5215 29.9707 13.623 29.9707C8.37047 29.3327 4.4154 26.7351 1.75781 22.1777C0.779607 20.3337 0.183902 18.3806 -0.0292969 16.3184C-0.0292969 15.4199 -0.0292969 14.5215 -0.0292969 13.623C0.608643 8.37053 3.2063 4.41547 7.76367 1.75781C9.60768 0.779607 11.5608 0.183902 13.623 -0.0292969Z" fill="#6F3FAA"/>
<path fill-rule="evenodd" clip-rule="evenodd" d="M10.3418 23.7012C10.3797 22.9564 10.3407 22.2337 10.2246 21.5333C8.21459 20.8025 6.89623 19.4158 6.26957 17.3731C5.81551 15.1923 5.77645 13.0048 6.15238 10.8106C6.48226 9.06708 7.39047 7.70964 8.87699 6.73833C9.43469 6.37159 10.0402 6.1177 10.6934 5.97661C13.6259 5.45642 16.5556 5.47595 19.4825 6.0352C21.0862 6.56483 22.3265 7.55114 23.2032 8.99419C23.4173 9.38278 23.5735 9.79294 23.6719 10.2247C24.1934 12.7086 24.1739 15.1891 23.6133 17.6661C22.8602 19.6693 21.4637 20.9877 19.4239 21.6211C17.5063 21.9688 15.5727 22.125 13.6231 22.0899C12.9182 22.7752 12.2346 23.4783 11.5723 24.1993C10.9705 24.4839 10.5604 24.3179 10.3418 23.7012Z" fill="#FDFCFD"/>
<path fill-rule="evenodd" clip-rule="evenodd" d="M13.3301 7.23678C15.2791 7.14133 17.2127 7.26825 19.1309 7.61764C20.588 8.13725 21.5743 9.12356 22.0898 10.5766C22.5502 12.8705 22.5111 15.1557 21.9726 17.4321C21.3564 18.6929 20.3896 19.5621 19.0723 20.0395C17.5031 20.3195 15.921 20.4562 14.3262 20.4497C13.2756 21.51 12.2209 22.5549 11.1621 23.5844C11.1069 23.5781 11.0581 23.5586 11.0156 23.5258C10.9961 22.3931 10.9765 21.2602 10.957 20.1274C9.60708 19.6171 8.61099 18.7186 7.96874 17.4321C7.41216 15.0721 7.39265 12.7088 7.91015 10.3423C8.4829 9.01563 9.4497 8.10743 10.8105 7.61764C11.6555 7.47116 12.4953 7.34424 13.3301 7.23678Z" fill="#6F3FAA"/>
<path fill-rule="evenodd" clip-rule="evenodd" d="M14.7364 9.16992C17.6341 9.34307 19.2161 10.8763 19.4824 13.7695C19.5651 14.1356 19.4284 14.2918 19.0723 14.2383C19.0356 14.1943 19.0063 14.1455 18.9844 14.0918C19.0082 12.135 18.1391 10.758 16.377 9.96094C15.8426 9.79646 15.2957 9.69879 14.7364 9.66797C14.5081 9.50262 14.5081 9.33662 14.7364 9.16992Z" fill="#FAF8FC"/>
<path fill-rule="evenodd" clip-rule="evenodd" d="M11.6309 9.69695C11.9302 9.66314 12.1744 9.76082 12.3633 9.98992C12.7776 10.4864 13.1487 11.0138 13.4766 11.5719C13.6178 11.8961 13.569 12.1891 13.3301 12.4509C13.1726 12.5986 13.0066 12.7354 12.832 12.861C12.7107 13.1612 12.7303 13.4542 12.8906 13.7399C13.3974 14.9108 14.247 15.7213 15.4395 16.1716C15.6231 16.2178 15.7989 16.1983 15.9668 16.113C16.1621 15.8981 16.3574 15.6833 16.5527 15.4684C16.8549 15.3414 17.1479 15.3609 17.4316 15.527C17.9853 15.9048 18.5224 16.3053 19.043 16.7282C19.1335 16.8283 19.1823 16.9455 19.1895 17.0798C18.9773 17.8291 18.5085 18.3466 17.7832 18.6325C17.6074 18.6716 17.4316 18.6716 17.2559 18.6325C14.2331 17.5431 12.0554 15.5411 10.7227 12.6266C10.5311 12.1952 10.3651 11.7557 10.2246 11.3083C10.2725 10.9887 10.3994 10.7055 10.6055 10.4587C10.9085 10.145 11.2502 9.89113 11.6309 9.69695Z" fill="#FDFDFE"/>
<path fill-rule="evenodd" clip-rule="evenodd" d="M15.088 10.3418C17.1869 10.4777 18.2514 11.591 18.2813 13.6816C18.1251 13.8379 17.9689 13.8379 17.8126 13.6816C17.7411 11.9401 16.8329 10.983 15.088 10.8105C14.9326 10.6523 14.9326 10.496 15.088 10.3418Z" fill="#F9F7FB"/>
<path fill-rule="evenodd" clip-rule="evenodd" d="M15.4394 11.5723C16.6921 11.6023 17.2195 12.2176 17.0214 13.418C16.8925 13.4663 16.7851 13.437 16.6992 13.3301C16.6764 12.5457 16.276 12.1257 15.498 12.0703C15.2921 11.922 15.2726 11.756 15.4394 11.5723Z" fill="#F9F7FB"/>
<path fill-rule="evenodd" clip-rule="evenodd" d="M10.2246 21.5332C10.3406 22.2337 10.3796 22.9563 10.3418 23.7012C10.3017 22.9843 10.2626 22.2616 10.2246 21.5332Z" fill="#D4C6E5"/>
</g>
<defs>
<clipPath id="clip0_9405_8479">
<rect width="30" height="30" fill="white"/>
</clipPath>
</defs>
</svg>
