<svg width="30" height="30" viewBox="0 0 30 30" fill="none" xmlns="http://www.w3.org/2000/svg">
<g clip-path="url(#clip0_9405_8470)">
<path opacity="0.996" fill-rule="evenodd" clip-rule="evenodd" d="M13.623 -0.0292969C14.5215 -0.0292969 15.4199 -0.0292969 16.3184 -0.0292969C21.5709 0.608666 25.526 3.20633 28.1836 7.76367C29.1618 9.60768 29.7575 11.5608 29.9707 13.623C29.9707 14.5215 29.9707 15.4199 29.9707 16.3184C29.3327 21.5709 26.7351 25.526 22.1777 28.1836C20.3337 29.1618 18.3806 29.7575 16.3184 29.9707C15.4199 29.9707 14.5215 29.9707 13.623 29.9707C8.37047 29.3327 4.4154 26.7351 1.75781 22.1777C0.779607 20.3337 0.183902 18.3806 -0.0292969 16.3184C-0.0292969 15.4199 -0.0292969 14.5215 -0.0292969 13.623C0.608643 8.37053 3.2063 4.41547 7.76367 1.75781C9.60768 0.779607 11.5608 0.183902 13.623 -0.0292969Z" fill="#29A71A"/>
<path fill-rule="evenodd" clip-rule="evenodd" d="M14.2678 5.59587C18.1308 5.50044 21.0702 7.08245 23.0862 10.342C24.844 13.7981 24.6487 17.138 22.5002 20.3615C20.3337 23.1578 17.4724 24.4176 13.9163 24.1408C12.8329 24.0042 11.7977 23.7015 10.8108 23.2326C9.28278 23.5755 7.75934 23.9368 6.24048 24.3166C5.75242 24.3541 5.5864 24.1295 5.74243 23.6427C6.05268 22.15 6.35544 20.6559 6.65063 19.1603C5.0577 15.6061 5.3995 12.2565 7.67602 9.11149C9.39968 7.05333 11.5969 5.88145 14.2678 5.59587Z" fill="#FDFEFD"/>
<path fill-rule="evenodd" clip-rule="evenodd" d="M14.4437 7.588C17.8531 7.57283 20.2848 9.09626 21.7386 12.1583C22.8145 15.3251 22.1602 18.0693 19.7757 20.3907C17.019 22.5221 14.1089 22.7467 11.0452 21.0646C10.1151 21.2947 9.18734 21.529 8.26202 21.7677C8.37839 20.8241 8.54445 19.8866 8.76007 18.9552C8.46013 18.2218 8.17695 17.4796 7.91046 16.7286C7.22609 13.1083 8.44683 10.3446 11.5726 8.43761C12.486 7.98011 13.443 7.69687 14.4437 7.588Z" fill="#2AA71B"/>
<path fill-rule="evenodd" clip-rule="evenodd" d="M11.748 10.4001C12.0043 10.3911 12.2289 10.4692 12.4218 10.6345C12.7308 11.272 13.0238 11.9166 13.3007 12.5681C13.3418 12.7689 13.3223 12.9643 13.2421 13.154C12.9794 13.4264 12.7938 13.7388 12.6855 14.0915C12.6835 14.2634 12.7323 14.4196 12.832 14.5603C13.3279 15.193 13.8845 15.7691 14.5019 16.2888C14.9195 16.6279 15.3687 16.9208 15.8495 17.1677C16.1004 17.2242 16.3348 17.1851 16.5527 17.0505C16.748 16.8552 16.9433 16.6599 17.1386 16.4646C17.2382 16.4084 17.3456 16.3791 17.4609 16.3767C18.2024 16.5499 18.9349 16.755 19.6581 16.9919C19.9266 17.1933 20.0144 17.457 19.9218 17.7829C19.4015 18.8876 18.5323 19.4345 17.3144 19.4235C16.0304 19.2918 14.878 18.8329 13.8574 18.0466C12.7073 17.1897 11.7405 16.1643 10.957 14.9704C10.4227 14.0912 10.2176 13.144 10.3417 12.1286C10.5224 11.5721 10.8349 11.1033 11.2792 10.7224C11.4298 10.6001 11.5861 10.4927 11.748 10.4001Z" fill="#FDFEFD"/>
</g>
<defs>
<clipPath id="clip0_9405_8470">
<rect width="30" height="30" fill="white"/>
</clipPath>
</defs>
</svg>
